PathFileType  4	(X/Y/Z) D:/Data/Berkelmans/SUB01/trc/slow_skatebelt
DataRate	CameraRate	NumFrames	NumMarkers	Units	OrigDataRate	OrigDataStartFrame	OrigNumFrames
100.0	100.0	8	31	m	100.0	201	800
Frame#	Time	LCAL			RCAL			C7			LSHO			RTIB2			RFEM2			LFEM2			RTIB3			RFEM1			LSIPS			RTIB1			LTIB2			RFEM3			RSHO			RKNEE_med			LKNEE_lat			RKNEE_lat			LMTP5			RMTP5			RSIAS			RSIPS			LSIAS			LKNEE_med			LANK_lat			LANK_med			RANK_lat			RANK_med			LTIB3			LTIB1			LFEM3			LFEM1			
		X1	Y1	Z1	X2	Y2	Z2	X3	Y3	Z3	X4	Y4	Z4	X5	Y5	Z5	X6	Y6	Z6	X7	Y7	Z7	X8	Y8	Z8	X9	Y9	Z9	X10	Y10	Z10	X11	Y11	Z11	X12	Y12	Z12	X13	Y13	Z13	X14	Y14	Z14	X15	Y15	Z15	X16	Y16	Z16	X17	Y17	Z17	X18	Y18	Z18	X19	Y19	Z19	X20	Y20	Z20	X21	Y21	Z21	X22	Y22	Z22	X23	Y23	Z23	X24	Y24	Z24	X25	Y25	Z25	X26	Y26	Z26	X27	Y27	Z27	X28	Y28	Z28	X29	Y29	Z29	X30	Y30	Z30	X31	Y31	Z31	

201	-0.9950000	-0.1227978	0.0671233	-0.0593626	-0.0817459	0.1417182	0.0811032	-0.1469964	1.3959086	-0.0735748	-0.0534584	1.4479036	-0.1957155	0.0389881	0.3828029	0.1641969	0.0585126	0.5912594	0.1528630	-0.0588831	0.6086589	-0.1849791	-0.0032542	0.3992043	0.1216195	-0.0260732	0.6599128	0.1469644	-0.1360883	1.0453368	-0.0992235	0.0406396	0.4505955	0.1534869	-0.0834850	0.3404517	-0.1692300	0.0193753	0.5900522	0.1082099	-0.0736763	1.4052291	0.1733685	0.1711531	0.5461725	0.0546042	-0.0029486	0.4841446	-0.1425754	0.1466538	0.5314347	0.1520523	0.0353719	0.0433337	-0.1322524	0.0570875	0.0710995	0.1640152	0.0400739	0.9874232	0.0935584	-0.1478348	1.0350592	0.0139440	0.0586858	0.9864134	-0.1313671	-0.0111376	0.4999559	-0.0515076	-0.0651952	0.1015422	-0.1136285	-0.0415283	0.1088956	-0.0356996	-0.0143581	0.1588513	0.1367841	0.0120260	0.1621862	0.0586811	-0.1290321	0.3554753	-0.1404652	-0.0867987	0.4059898	-0.1639722	-0.1163372	0.6225205	-0.1439557	-0.1105661	0.7007302	-0.1880095
202	-0.9850000	-0.1285914	0.0671462	-0.0593104	-0.0661363	0.1317255	0.0811911	-0.1473571	1.3961304	-0.0735988	-0.0544739	1.4477602	-0.1958203	0.0440500	0.3783994	0.1644975	0.0606406	0.5944891	0.1526127	-0.0621820	0.6086821	-0.1850280	0.0004446	0.3928785	0.1222828	-0.0270955	0.6590989	0.1504803	-0.1373353	1.0455677	-0.0987206	0.0426069	0.4462236	0.1540833	-0.0873249	0.3404008	-0.1688061	0.0179024	0.5894603	0.1110421	-0.0738749	1.4051601	0.1733264	0.1663110	0.5461317	0.0545816	-0.0066899	0.4838633	-0.1425269	0.1455383	0.5315368	0.1516419	0.0296142	0.0433437	-0.1322695	0.0758118	0.0685294	0.1649077	0.0393124	0.9873544	0.0933488	-0.1489118	1.0354158	0.0145850	0.0571261	0.9860554	-0.1317692	-0.0144410	0.4997805	-0.0514705	-0.0707996	0.1015668	-0.1134414	-0.0473946	0.1089240	-0.0355512	0.0003521	0.1522978	0.1369115	0.0269066	0.1566007	0.0587742	-0.1335249	0.3557993	-0.1401092	-0.0908575	0.4062461	-0.1638812	-0.1194118	0.6227611	-0.1438541	-0.1132251	0.7011911	-0.1876004
203	-0.9750000	-0.1343794	0.0671818	-0.0592733	-0.0475480	0.1219629	0.0818621	-0.1477695	1.3962328	-0.0735283	-0.0551937	1.4479521	-0.1958574	0.0489558	0.3739486	0.1646678	0.0562086	0.5917647	0.1543878	-0.0652444	0.6085629	-0.1849299	0.0041402	0.3865548	0.1232701	-0.0283510	0.6581702	0.1541762	-0.1385785	1.0457806	-0.0982638	0.0439497	0.4417044	0.1546538	-0.0921731	0.3406175	-0.1686759	0.0133530	0.5880284	0.1155248	-0.0740925	1.4050920	0.1733065	0.1640611	0.5459871	0.0543261	-0.0105008	0.4836049	-0.1424439	0.1442502	0.5313379	0.1511844	0.0240414	0.0432663	-0.1320713	0.0946074	0.0664961	0.1658279	0.0386929	0.9872046	0.0931911	-0.1496709	1.0356314	0.0151387	0.0556278	0.9856311	-0.1320603	-0.0177286	0.4995356	-0.0513986	-0.0765887	0.1015384	-0.1132999	-0.0532100	0.1087063	-0.0354276	0.0152460	0.1460951	0.1364675	0.0468851	0.1525382	0.0604673	-0.1374846	0.3560389	-0.1397048	-0.0951693	0.4064100	-0.1635878	-0.1225551	0.6230105	-0.1436172	-0.1157506	0.7015224	-0.1870163
204	-0.9650000	-0.1409829	0.0676825	-0.0588013	-0.0324902	0.1128118	0.0827573	-0.1485234	1.3964010	-0.0732223	-0.0557899	1.4477970	-0.1959752	0.0538080	0.3695588	0.1651627	0.0565149	0.5916159	0.1562632	-0.0682848	0.6083511	-0.1846710	0.0076201	0.3801319	0.1244701	-0.0295202	0.6571955	0.1576315	-0.1399296	1.0458441	-0.0974811	0.0454019	0.4371262	0.1555197	-0.0963864	0.3406895	-0.1683949	0.0114387	0.5874711	0.1178729	-0.0741720	1.4049621	0.1733337	0.1612695	0.5455808	0.0539482	-0.0142261	0.4833833	-0.1422659	0.1424389	0.5308704	0.1506328	0.0181949	0.0432822	-0.1321823	0.1132204	0.0650902	0.1668736	0.0381732	0.9869885	0.0930004	-0.1505956	1.0357326	0.0158940	0.0541392	0.9852182	-0.1321441	-0.0210956	0.4991074	-0.0512072	-0.0822469	0.1016722	-0.1131454	-0.0586669	0.1088515	-0.0352880	0.0310388	0.1405143	0.1365446	0.0619840	0.1477318	0.0605420	-0.1421404	0.3563803	-0.1395166	-0.0991645	0.4064186	-0.1634022	-0.1257044	0.6232492	-0.1431860	-0.1183877	0.7018624	-0.1864468
205	-0.9550000	-0.1456522	0.0675031	-0.0591432	-0.0161627	0.1045984	0.0829894	-0.1491759	1.3963948	-0.0729159	-0.0567466	1.4475840	-0.1959824	0.0584683	0.3651694	0.1656244	0.0554967	0.5913840	0.1566859	-0.0715238	0.6085447	-0.1842928	0.0141173	0.3745761	0.1242305	-0.0308707	0.6565870	0.1605620	-0.1410710	1.0458487	-0.0967381	0.0469368	0.4323032	0.1565832	-0.1007722	0.3407984	-0.1681719	0.0092057	0.5869000	0.1195806	-0.0741789	1.4048809	0.1734350	0.1579325	0.5447270	0.0535336	-0.0179727	0.4830695	-0.1421641	0.1403083	0.5300151	0.1501579	0.0126121	0.0433001	-0.1319912	0.1317451	0.0647057	0.1676899	0.0375389	0.9867790	0.0930004	-0.1513391	1.0358771	0.0166459	0.0526240	0.9847594	-0.1322337	-0.0244667	0.4988750	-0.0510503	-0.0878922	0.1016332	-0.1129085	-0.0642243	0.1087811	-0.0352151	0.0459750	0.1352798	0.1367797	0.0763240	0.1434459	0.0603685	-0.1461084	0.3566809	-0.1391722	-0.1033417	0.4065601	-0.1630443	-0.1286134	0.6235015	-0.1426288	-0.1212605	0.7020761	-0.1860228
206	-0.9450000	-0.1512985	0.0674733	-0.0590150	0.0012800	0.0963155	0.0829450	-0.1496286	1.3965142	-0.0726661	-0.0581979	1.4471631	-0.1959874	0.0630916	0.3609223	0.1662644	0.0536038	0.5906483	0.1564276	-0.0747721	0.6087608	-0.1837149	0.0147244	0.3674895	0.1275288	-0.0322685	0.6560977	0.1627414	-0.1419974	1.0458260	-0.0959659	0.0483789	0.4274119	0.1576943	-0.1002245	0.3406580	-0.1641510	0.0065233	0.5864297	0.1208570	-0.0742023	1.4047155	0.1736505	0.1543875	0.5436857	0.0529090	-0.0218178	0.4827981	-0.1420412	0.1379383	0.5290379	0.1497131	0.0068910	0.0431344	-0.1321346	0.1498395	0.0650355	0.1684441	0.0370035	0.9865940	0.0931200	-0.1520721	1.0358142	0.0175226	0.0512911	0.9842775	-0.1322726	-0.0278679	0.4986320	-0.0508518	-0.0935730	0.1017300	-0.1128726	-0.0738229	0.1088081	-0.0326838	0.0605664	0.1307756	0.1371660	0.0873309	0.1387485	0.0591206	-0.1453467	0.3566953	-0.1350900	-0.1073660	0.4067400	-0.1629313	-0.1314692	0.6239413	-0.1418603	-0.1241352	0.7023996	-0.1853021
207	-0.9350000	-0.1570895	0.0676138	-0.0589838	0.0202638	0.0888058	0.0820036	-0.1502179	1.3964252	-0.0721979	-0.0586017	1.4469390	-0.1958763	0.0677557	0.3568339	0.1670904	0.0511081	0.5896032	0.1562847	-0.0780454	0.6089014	-0.1831842	0.0187507	0.3610896	0.1288356	-0.0340761	0.6558747	0.1642014	-0.1431278	1.0457193	-0.0949963	0.0495381	0.4225686	0.1587730	-0.1018974	0.3390684	-0.1623691	0.0031892	0.5857791	0.1214312	-0.0741956	1.4045666	0.1738899	0.1503266	0.5423013	0.0523972	-0.0255456	0.4826134	-0.1418580	0.1353433	0.5277421	0.1492496	0.0011738	0.0431428	-0.1319786	0.1673750	0.0659844	0.1691132	0.0366701	0.9863722	0.0934315	-0.1526936	1.0357813	0.0184279	0.0501046	0.9839023	-0.1320060	-0.0313432	0.4982310	-0.0506543	-0.0993002	0.1017808	-0.1127453	-0.0771660	0.1091477	-0.0341754	0.0746509	0.1268361	0.1376542	0.1027805	0.1353264	0.0585411	-0.1465433	0.3559517	-0.1327664	-0.1117996	0.4070709	-0.1625649	-0.1345051	0.6244338	-0.1406915	-0.1269057	0.7029133	-0.1842365
208	-0.9250000	-0.1627811	0.0675870	-0.0588875	0.0353076	0.0826184	0.0831184	-0.1508095	1.3962351	-0.0716619	-0.0590747	1.4466080	-0.1955305	0.0716779	0.3531342	0.1675123	0.0480431	0.5882688	0.1561053	-0.0852474	0.6092519	-0.1803863	0.0224470	0.3553350	0.1295067	-0.0361707	0.6558312	0.1647199	-0.1441385	1.0455715	-0.0940047	0.0508420	0.4182819	0.1593963	-0.1063853	0.3392550	-0.1620613	-0.0002428	0.5852173	0.1217970	-0.0742639	1.4043479	0.1742455	0.1460514	0.5407723	0.0519773	-0.0293315	0.4824441	-0.1415984	0.1326410	0.5263117	0.1488335	-0.0045043	0.0430827	-0.1320182	0.1839843	0.0674145	0.1696098	0.0364000	0.9861628	0.0937778	-0.1530798	1.0355530	0.0194787	0.0489091	0.9835806	-0.1317244	-0.0346055	0.4979478	-0.0504142	-0.1048673	0.1017877	-0.1125347	-0.0826092	0.1091682	-0.0342109	0.0881709	0.1235576	0.1384313	0.1169985	0.1336902	0.0583828	-0.1506731	0.3564656	-0.1324107	-0.1157729	0.4073744	-0.1624554	-0.1374192	0.6250219	-0.1397252	-0.1297172	0.7036613	-0.1828992
